<?xml version="1.0" standalone="no"?>
<!DOCTYPE svg PUBLIC "-//W3C//DTD SVG 20010904//EN"
 "http://www.w3.org/TR/2001/REC-SVG-20010904/DTD/svg10.dtd">
<svg version="1.0" xmlns="http://www.w3.org/2000/svg"
 width="645.000000pt" height="645.000000pt" viewBox="0 0 645.000000 645.000000"
 preserveAspectRatio="xMidYMid meet">
<metadata>
Created by potrace 1.11, written by Peter Selinger 2001-2013
</metadata>
<g transform="translate(0.000000,645.000000) scale(0.100000,-0.100000)"
fill="#000000" stroke="none">
<path d="M3037 6444 c-1 -1 -40 -5 -86 -8 -230 -19 -457 -64 -713 -143 -65
-20 -118 -40 -118 -45 0 -5 -4 -7 -9 -4 -10 7 -201 -73 -331 -139 -80 -40
-171 -91 -265 -148 -72 -43 -275 -190 -275 -198 0 -6 -4 -8 -9 -4 -6 3 -13 0
-18 -7 -4 -7 -28 -29 -53 -49 -25 -20 -67 -57 -95 -83 -27 -25 -53 -46 -57
-46 -5 0 -8 -7 -8 -16 0 -8 -4 -12 -10 -9 -5 3 -10 2 -10 -3 0 -5 -20 -30 -45
-54 -25 -25 -45 -44 -45 -42 0 5 -67 -69 -70 -77 -1 -4 -27 -33 -56 -65 -30
-32 -54 -64 -54 -71 0 -7 -4 -13 -9 -13 -11 0 -141 -175 -141 -189 0 -5 -3
-11 -8 -13 -11 -4 -74 -103 -108 -168 -16 -30 -32 -57 -35 -60 -10 -8 -99
-186 -99 -198 0 -5 -4 -12 -10 -14 -5 -1 -11 -12 -13 -23 -2 -11 -18 -51 -36
-89 -17 -37 -34 -80 -37 -95 -4 -14 -10 -30 -14 -36 -9 -11 -77 -226 -84 -265
-3 -14 -10 -41 -16 -60 -6 -19 -13 -46 -15 -60 -2 -14 -9 -44 -15 -68 -6 -23
-12 -57 -14 -75 -3 -18 -5 -32 -6 -32 -3 0 -9 -42 -15 -100 -4 -33 -9 -73 -11
-90 -24 -151 -22 -623 2 -739 3 -12 7 -41 9 -66 4 -40 10 -74 31 -185 36 -192
122 -462 210 -660 10 -22 18 -42 19 -45 5 -25 170 -328 184 -340 4 -3 12 -18
19 -33 11 -26 18 -36 52 -76 8 -10 16 -24 18 -31 2 -8 12 -21 23 -31 10 -9 19
-19 19 -23 0 -12 82 -116 91 -116 5 0 8 -3 7 -7 -4 -14 26 -53 40 -53 7 0 11
-4 7 -9 -3 -5 5 -17 17 -25 12 -9 19 -16 16 -16 -8 0 69 -85 127 -141 22 -21
43 -39 48 -39 4 0 7 -4 7 -9 0 -11 106 -114 123 -120 6 -2 22 -17 35 -32 13
-16 31 -29 40 -29 8 0 12 -3 9 -7 -8 -7 113 -99 125 -96 4 2 8 -1 8 -7 0 -9
91 -76 100 -73 3 1 9 -5 13 -13 5 -8 12 -12 18 -9 5 4 9 2 9 -3 0 -11 41 -40
62 -44 7 -2 19 -11 26 -21 7 -9 17 -15 22 -12 5 3 11 1 15 -5 6 -9 99 -62 239
-134 38 -19 73 -33 77 -30 5 3 9 0 9 -5 0 -6 4 -11 10 -11 5 0 33 -11 62 -24
65 -29 90 -39 103 -41 6 -1 32 -12 59 -24 27 -12 51 -19 54 -16 3 3 10 1 16
-4 19 -16 272 -84 406 -110 112 -21 142 -25 350 -47 87 -10 415 -10 515 0 109
9 154 14 195 21 19 3 53 7 75 10 118 16 438 100 560 146 33 13 62 23 65 24 16
1 166 71 172 80 4 5 8 7 8 3 0 -19 360 175 360 194 0 6 3 8 6 5 8 -8 64 24 64
36 0 4 5 5 10 2 6 -3 13 0 16 8 3 9 16 18 30 21 13 4 24 11 24 16 0 5 15 17
33 26 17 9 41 26 53 38 11 12 27 26 36 31 47 29 136 104 131 109 -4 3 -2 6 4
6 6 0 29 17 52 39 22 21 41 38 41 36 0 -1 28 26 63 59 34 34 63 63 62 66 0 3
3 6 8 7 13 5 147 161 147 172 0 6 7 11 15 11 8 0 15 6 15 14 0 8 7 17 16 20 9
4 15 9 12 12 -3 3 7 19 23 37 15 18 30 36 31 42 2 5 15 23 30 39 16 17 28 36
28 43 0 7 4 13 9 13 7 0 71 94 71 105 0 2 16 27 35 56 19 30 35 59 35 66 0 6
7 18 15 27 17 16 107 191 111 215 2 8 7 17 11 20 5 3 15 25 23 49 7 23 18 42
23 42 6 0 8 3 5 6 -4 3 2 24 12 47 10 23 16 45 14 49 -3 4 0 8 6 8 7 0 10 7 6
15 -3 8 -2 15 3 15 4 0 13 17 20 37 20 62 82 276 87 302 3 12 12 53 20 89 9
37 18 82 20 102 3 19 7 49 10 65 3 17 7 44 9 60 2 17 6 43 9 59 11 62 20 228
20 381 0 289 -23 483 -89 770 -9 39 -18 78 -20 88 -2 9 -7 23 -12 30 -4 6 -9
21 -10 32 -11 69 -97 292 -181 465 -36 74 -66 137 -66 140 -3 13 -150 254
-164 269 -9 10 -18 24 -20 32 -2 8 -8 16 -13 17 -5 2 -16 17 -25 34 -15 29
-24 40 -81 104 -12 13 -19 24 -15 24 4 0 -4 10 -16 23 -12 12 -35 39 -51 59
-16 21 -31 35 -35 31 -3 -3 -6 0 -6 9 0 8 -12 26 -27 40 -16 15 -48 47 -72 72
-25 25 -49 46 -53 46 -4 0 -8 4 -8 10 0 13 -101 106 -112 102 -5 -1 -8 1 -5 5
2 5 -4 16 -15 26 -10 9 -18 15 -18 12 0 -2 -10 6 -23 18 -58 55 -242 194 -259
196 -5 1 -17 10 -27 20 -10 10 -41 32 -67 47 -27 15 -52 33 -56 39 -4 5 -8 6
-8 1 0 -5 -8 -2 -17 6 -20 16 -108 68 -120 70 -5 1 -29 14 -54 28 -25 15 -62
33 -82 41 -20 7 -37 17 -37 21 0 4 -3 7 -7 6 -8 -1 -21 4 -108 42 -131 58
-513 176 -575 178 -8 0 -25 3 -37 6 -42 11 -68 16 -103 21 -19 3 -44 6 -55 9
-11 2 -51 7 -90 10 -38 4 -83 10 -100 13 -28 5 -453 12 -458 7z"/>
</g>
</svg>
